<svg width="24" height="24" viewBox="0 0 24 24" fill="none" xmlns="http://www.w3.org/2000/svg">
<path d="M20.9952 11.597V11H21.995V8H20.9952V6C20.9952 3.794 19.2017 2 16.9962 2H6.99875C4.7933 2 2.99975 3.794 2.99975 6V8H2V11H2.99975V11.597C2.35291 12.327 1.99739 13.2696 2.001 14.245L2.005 18.003C2.006 18.736 2.4089 19.372 2.99975 19.719V21C2.99975 21.2652 3.10508 21.5196 3.29257 21.7071C3.48006 21.8946 3.73435 22 3.9995 22H4.99925C5.2644 22 5.51869 21.8946 5.70618 21.7071C5.89367 21.5196 5.999 21.2652 5.999 21V20H17.996V21C17.996 21.2652 18.1013 21.5196 18.2888 21.7071C18.4763 21.8946 18.7306 22 18.9957 22H19.9955C20.2606 22 20.5149 21.8946 20.7024 21.7071C20.8899 21.5196 20.9952 21.2652 20.9952 21V19.726C21.1486 19.6404 21.29 19.5352 21.4161 19.413C21.793 19.035 22.001 18.532 22 17.998L21.996 14.239C21.9981 13.2653 21.6418 12.3249 20.9952 11.597ZM7.9985 4H15.9965V6H7.9985V4ZM6.49887 17C6.10102 16.9999 5.71951 16.8417 5.43827 16.5602C5.15704 16.2787 4.99912 15.897 4.99925 15.499C4.99938 15.101 5.15756 14.7194 5.43898 14.4381C5.7204 14.1568 6.10202 13.9989 6.49987 13.999C6.89773 13.9991 7.27924 14.1573 7.56048 14.4388C7.84171 14.7203 7.99963 15.102 7.9995 15.5C7.99937 15.898 7.84119 16.2796 7.55977 16.5609C7.27835 16.8422 6.89673 17.0001 6.49887 17ZM10.9977 12H4.99925V8H10.9977V12ZM17.4961 17C17.0983 16.9999 16.7168 16.8417 16.4355 16.5602C16.1543 16.2787 15.9964 15.897 15.9965 15.499C15.9966 15.101 16.1548 14.7194 16.4362 14.4381C16.7177 14.1568 17.0993 13.9989 17.4971 13.999C17.895 13.9991 18.2765 14.1573 18.5577 14.4388C18.839 14.7203 18.9969 15.102 18.9967 15.5C18.9966 15.898 18.8384 16.2796 18.557 16.5609C18.2756 16.8422 17.894 17.0001 17.4961 17ZM18.9957 12H12.9972V8H18.9957V12Z" fill="#307FE2"/>
</svg>
