<svg width="24" height="24" viewBox="0 0 24 24" fill="none" xmlns="http://www.w3.org/2000/svg">
<path d="M12 7.06452L10.6606 7.16903C9.79456 5.98452 7.36757 3 4.95065 3C4.95065 3 2.96677 6.43742 4.91037 11.0245C4.3565 11.9884 4.0141 12.4877 3.94361 13.6374L2 13.9742L2.21148 15.1123L3.98389 14.8103L4.12487 15.6348L2.54381 16.7265L3.01712 17.76L4.47734 16.7265C5.63545 19.56 8.56596 21 12 21C15.434 21 18.3646 19.56 19.5227 16.7265L20.9829 17.76L21.4562 16.7265L19.8751 15.6348L20.0161 14.8103L21.7885 15.1123L22 13.9742L20.0564 13.6374C19.9859 12.4877 19.6435 11.9884 19.0896 11.0245C21.0332 6.43742 19.0493 3 19.0493 3C16.6324 3 14.2054 5.98452 13.3394 7.16903L12 7.06452ZM8.97885 10.5484C9.24594 10.5484 9.50208 10.6707 9.69094 10.8885C9.8798 11.1063 9.9859 11.4017 9.9859 11.7097C9.9859 12.0177 9.8798 12.313 9.69094 12.5308C9.50208 12.7486 9.24594 12.871 8.97885 12.871C8.71177 12.871 8.45562 12.7486 8.26676 12.5308C8.0779 12.313 7.9718 12.0177 7.9718 11.7097C7.9718 11.4017 8.0779 11.1063 8.26676 10.8885C8.45562 10.6707 8.71177 10.5484 8.97885 10.5484ZM15.0211 10.5484C15.2882 10.5484 15.5444 10.6707 15.7332 10.8885C15.9221 11.1063 16.0282 11.4017 16.0282 11.7097C16.0282 12.0177 15.9221 12.313 15.7332 12.5308C15.5444 12.7486 15.2882 12.871 15.0211 12.871C14.7541 12.871 14.4979 12.7486 14.3091 12.5308C14.1202 12.313 14.0141 12.0177 14.0141 11.7097C14.0141 11.4017 14.1202 11.1063 14.3091 10.8885C14.4979 10.6707 14.7541 10.5484 15.0211 10.5484ZM10.993 14.0323H13.007L12.3021 15.6465C12.5035 16.3897 13.0675 16.9355 13.7623 16.9355C14.163 16.9355 14.5472 16.752 14.8305 16.4253C15.1138 16.0986 15.2729 15.6555 15.2729 15.1935H15.7764C15.7764 15.8095 15.5642 16.4003 15.1865 16.8359C14.8088 17.2714 14.2965 17.5161 13.7623 17.5161C13.007 17.5161 12.3525 17.04 12 16.3548C11.6475 17.04 10.993 17.5161 10.2377 17.5161C9.70349 17.5161 9.1912 17.2714 8.81348 16.8359C8.43576 16.4003 8.22357 15.8095 8.22357 15.1935H8.72709C8.72709 15.6555 8.88624 16.0986 9.16953 16.4253C9.45281 16.752 9.83703 16.9355 10.2377 16.9355C10.9325 16.9355 11.4965 16.3897 11.6979 15.6465L10.993 14.0323Z" fill="#307FE2"/>
</svg>
