<svg width="24" height="24" viewBox="0 0 24 24" fill="none" xmlns="http://www.w3.org/2000/svg">
<path d="M12 6.37578C12.7263 6.37578 13.4136 6.52417 14.0618 6.75066C14.5812 6.34844 14.9834 5.80174 15.2138 5.16132C14.2297 4.73568 13.1441 4.49747 12.0039 4.49747C10.8675 4.49747 9.78192 4.73177 8.79786 5.15742C9.02825 5.79784 9.43047 6.34454 9.94983 6.74675C10.5942 6.52417 11.2775 6.37578 12 6.37578ZM7.14604 19.1334C7.61464 18.6726 7.94266 18.1025 8.10277 17.4777C6.81802 16.4468 5.96283 14.9277 5.80272 13.1978C5.4708 13.0885 5.13106 13.0182 4.7718 13.0182C4.47502 13.0182 4.17824 13.0572 3.89318 13.1392C4.05328 15.5916 5.29117 17.7471 7.14604 19.1334ZM15.9011 17.4699C16.0612 18.0947 16.3892 18.6687 16.8578 19.1295C18.7088 17.7432 19.9466 15.5877 20.0989 13.1353C19.8178 13.0572 19.5249 13.0182 19.232 13.0182C18.8728 13.0182 18.5291 13.0924 18.1933 13.2017C18.0332 14.9277 17.178 16.439 15.9011 17.4699ZM20.3332 9.46463C19.646 9.05851 18.9157 8.8164 18.1738 8.68754C18.4081 7.99635 18.5643 7.26612 18.5643 6.49293C18.5643 4.89188 17.998 3.33768 16.9632 2.11151C16.8656 1.99436 16.7055 1.96703 16.5727 2.04122C16.4439 2.11542 16.3853 2.27552 16.4321 2.42001C16.6079 2.9589 16.6899 3.44702 16.6899 3.92343C16.6899 6.57103 14.589 8.72268 12.0039 8.72268C9.41875 8.72268 7.31786 6.57103 7.31786 3.92343C7.31786 3.45093 7.40377 2.9589 7.57559 2.42001C7.62245 2.27552 7.56388 2.11542 7.43501 2.04122C7.30224 1.96703 7.14214 1.99436 7.04451 2.11151C6.01359 3.33768 5.44346 4.89188 5.44346 6.49293C5.44346 7.26612 5.59576 7.99635 5.83396 8.68754C5.09592 8.8164 4.36178 9.05851 3.6745 9.46463C2.32337 10.2652 1.29245 11.546 0.773082 13.0729C0.722317 13.2173 0.780892 13.3735 0.909757 13.4555C1.03862 13.5336 1.20263 13.5063 1.30026 13.3931C1.66733 12.9713 2.04221 12.6472 2.44052 12.4129C4.67808 11.0891 7.54826 11.8779 8.84081 14.1702C10.1334 16.4624 9.36408 19.4029 7.12652 20.7267C6.72821 20.9649 6.26742 21.1328 5.72853 21.2499C5.58404 21.2812 5.47861 21.4139 5.47861 21.5662C5.48251 21.7224 5.58404 21.8513 5.73243 21.8786C7.28272 22.1832 8.87986 21.9099 10.231 21.1093C10.9339 20.6954 11.5157 20.1526 12 19.5434C12.4842 20.1526 13.066 20.6954 13.7689 21.1093C15.1201 21.9099 16.7172 22.1832 18.2675 21.8786C18.4159 21.8513 18.5174 21.7224 18.5213 21.5662C18.5213 21.4139 18.4198 21.2812 18.2714 21.2499C17.7286 21.1367 17.2717 20.9649 16.8734 20.7267C14.6358 19.4029 13.8666 16.4624 15.1591 14.1702C16.4517 11.8779 19.3218 11.0891 21.5594 12.4129C21.9577 12.6511 22.3326 12.9713 22.6997 13.3931C22.7973 13.5063 22.9613 13.5336 23.0902 13.4555C23.219 13.3774 23.2776 13.2173 23.2268 13.0729C22.7153 11.546 21.6844 10.2613 20.3332 9.46463ZM12 14.5021C10.9651 14.5021 10.1256 13.6625 10.1256 12.6277C10.1256 11.5929 10.9651 10.7533 12 10.7533C13.0348 10.7533 13.8744 11.5929 13.8744 12.6277C13.8744 13.6625 13.0348 14.5021 12 14.5021Z" fill="#307FE2"/>
</svg>
