<svg width="24" height="24" viewBox="0 0 24 24" fill="none" xmlns="http://www.w3.org/2000/svg">
<path d="M22 2C19.456 2.424 17.638 3.207 16.379 3.969C15.055 3.355 13.573 3 12 3C10.427 3 8.945 3.355 7.621 3.969C6.362 3.207 4.544 2.424 2 2C2 4.856 2.454 7.024 2.928 8.521C2.338 9.733 2 11.077 2 12.5C2 17.747 8 22 12 22C16 22 22 17.747 22 12.5C22 11.077 21.662 9.733 21.072 8.521C21.546 7.024 22 4.856 22 2ZM6 10.375C6 10.375 6.5 10 7.5 10C10 10 10 12.625 10 12.625C10 12.625 9.5 13 8.5 13C6 13 6 10.375 6 10.375ZM12 17C12 17 10 16 10 15H12H14C14 16 12 17 12 17ZM15.5 13C14.5 13 14 12.625 14 12.625C14 12.625 14 10 16.5 10C17.5 10 18 10.375 18 10.375C18 10.375 18 13 15.5 13Z" fill="#307FE2"/>
</svg>
