<svg width="24" height="24" viewBox="0 0 24 24" fill="none" xmlns="http://www.w3.org/2000/svg">
<g clip-path="url(#clip0_814_283)">
<path d="M13.26 3.30001C13.4165 3.18805 13.5997 3.11911 13.7911 3.10007C13.9826 3.08102 14.1758 3.11255 14.3512 3.19149C14.5267 3.27043 14.6785 3.39403 14.7912 3.54994C14.904 3.70585 14.9739 3.88863 14.994 4.08001L15 4.19401V19.806C15.0001 19.9984 14.9496 20.1875 14.8538 20.3544C14.7579 20.5212 14.6199 20.66 14.4536 20.7569C14.2874 20.8537 14.0986 20.9053 13.9061 20.9064C13.7137 20.9074 13.5244 20.858 13.357 20.763L13.261 20.701L6.68 16H4C3.49542 16.0002 3.00943 15.8096 2.63945 15.4665C2.26947 15.1234 2.04284 14.6532 2.005 14.15L2 14V10C2.00009 9.49561 2.19077 9.00986 2.53384 8.64009C2.8769 8.27033 3.34702 8.04384 3.85 8.00601L4 8.00001H6.68L13.26 3.30001ZM17.586 9.17201L19 10.586L20.414 9.17201C20.5062 9.0765 20.6166 9.00032 20.7386 8.94791C20.8606 8.8955 20.9918 8.86791 21.1246 8.86676C21.2574 8.86561 21.3891 8.89091 21.512 8.94119C21.6348 8.99147 21.7465 9.06572 21.8404 9.15961C21.9343 9.25351 22.0085 9.36516 22.0588 9.48806C22.1091 9.61095 22.1344 9.74263 22.1333 9.87541C22.1321 10.0082 22.1045 10.1394 22.0521 10.2614C21.9997 10.3834 21.9235 10.4938 21.828 10.586L20.414 12L21.828 13.414C22.0156 13.6015 22.1211 13.8559 22.1212 14.1212C22.1213 14.3864 22.016 14.6409 21.8285 14.8285C21.641 15.0161 21.3866 15.1216 21.1214 15.1217C20.8561 15.1218 20.6016 15.0165 20.414 14.829L19 13.413L17.586 14.828C17.3984 15.0155 17.1439 15.1208 16.8786 15.1207C16.6134 15.1206 16.359 15.0152 16.1715 14.8275C15.984 14.6399 15.8787 14.3854 15.8788 14.1202C15.8789 13.8549 15.9844 13.6005 16.172 13.413L17.586 12L16.172 10.586C16.0765 10.4938 16.0003 10.3834 15.9479 10.2614C15.8955 10.1394 15.8679 10.0082 15.8667 9.87541C15.8656 9.74263 15.8909 9.61095 15.9412 9.48806C15.9915 9.36516 16.0657 9.25351 16.1596 9.15961C16.2535 9.06572 16.3652 8.99147 16.488 8.94119C16.6109 8.89091 16.7426 8.86561 16.8754 8.86676C17.0082 8.86791 17.1394 8.8955 17.2614 8.94791C17.3834 9.00032 17.4938 9.0765 17.586 9.17201Z" fill="#307FE2"/>
</g>
<defs>
<clipPath id="clip0_814_283">
<rect width="24" height="24" fill="white"/>
</clipPath>
</defs>
</svg>
