<svg width="24" height="24" viewBox="0 0 24 24" fill="none" xmlns="http://www.w3.org/2000/svg">
<path d="M11.3749 2C12.0663 2 12.6249 2.55859 12.6249 3.25V11.375H10.1249V3.25C10.1249 2.55859 10.6835 2 11.3749 2ZM15.1249 8.25C15.8163 8.25 16.3749 8.80859 16.3749 9.5V12C16.3749 12.6914 15.8163 13.25 15.1249 13.25C14.4335 13.25 13.8749 12.6914 13.8749 12V9.5C13.8749 8.80859 14.4335 8.25 15.1249 8.25ZM17.6249 10.75C17.6249 10.0586 18.1835 9.5 18.8749 9.5C19.5663 9.5 20.1249 10.0586 20.1249 10.75V13.25C20.1249 13.9414 19.5663 14.5 18.8749 14.5C18.1835 14.5 17.6249 13.9414 17.6249 13.25V10.75ZM6.26944 4L9.49601 11.375H6.76944L3.98038 5C3.70304 4.36719 3.9921 3.63281 4.62491 3.35547C5.25772 3.07813 5.99601 3.36719 6.26944 4ZM7.32413 12.6445L7.31632 12.625H11.0624C11.9257 12.625 12.6249 13.3242 12.6249 14.1875C12.6249 15.0508 11.9257 15.75 11.0624 15.75H8.87491C8.53116 15.75 8.24991 16.0312 8.24991 16.375C8.24991 16.7188 8.53116 17 8.87491 17H11.0624C12.6171 17 13.8749 15.7422 13.8749 14.1875V14.1641C14.2421 14.375 14.6679 14.5 15.1249 14.5C15.6405 14.5 16.1171 14.3438 16.5155 14.0781C16.8554 15.0508 17.7851 15.75 18.8749 15.75C19.3319 15.75 19.7577 15.6289 20.1249 15.4141V15.75C20.1249 19.2031 17.328 22 13.8749 22H11.4648C9.80851 22 8.21866 21.3398 7.04679 20.168L6.59366 19.7148C5.65226 18.7773 5.12491 17.5039 5.12491 16.1797V15.125C5.12491 13.8477 6.08585 12.793 7.32413 12.6445Z" fill="#307FE2"/>
</svg>
