<svg width="24" height="24" viewBox="0 0 24 24" fill="none" xmlns="http://www.w3.org/2000/svg">
<path d="M14.7 7C14.9387 7 15.1676 7.09365 15.3364 7.26035C15.5052 7.42705 15.6 7.65314 15.6 7.88889V9.66667H20.1C20.3387 9.66667 20.5676 9.76032 20.7364 9.92702C20.9052 10.0937 21 10.3198 21 10.5556V22.1111C21 22.3469 20.9052 22.573 20.7364 22.7397C20.5676 22.9064 20.3387 23 20.1 23H3.9C3.66131 23 3.43239 22.9064 3.2636 22.7397C3.09482 22.573 3 22.3469 3 22.1111V10.5556C3 10.3198 3.09482 10.0937 3.2636 9.92702C3.43239 9.76032 3.66131 9.66667 3.9 9.66667H8.4V7.88889C8.4 7.65314 8.49482 7.42705 8.6636 7.26035C8.83239 7.09365 9.0613 7 9.3 7H14.7ZM8.4 11.4444H6.6V21.2222H8.4V11.4444ZM17.4 11.4444H15.6V21.2222H17.4V11.4444ZM13.8 8.77778H10.2V9.66667H13.8V8.77778Z" fill="#307FE2"/>
<path d="M6.5 3L6.90514 4.09486L8 4.5L6.90514 4.90514L6.5 6L6.09486 4.90514L5 4.5L6.09486 4.09486L6.5 3Z" fill="#307FE2"/>
<path d="M12 0L12.8103 2.18973L15 3L12.8103 3.81027L12 6L11.1897 3.81027L9 3L11.1897 2.18973L12 0Z" fill="#307FE2"/>
<path d="M17.5 3L17.0949 4.09486L16 4.5L17.0949 4.90514L17.5 6L17.9051 4.90514L19 4.5L17.9051 4.09486L17.5 3Z" fill="#307FE2"/>
<path d="M3.5 5L3.90514 6.09486L5 6.5L3.90514 6.90514L3.5 8L3.09486 6.90514L2 6.5L3.09486 6.09486L3.5 5Z" fill="#307FE2"/>
<path d="M20.5 5L20.0949 6.09486L19 6.5L20.0949 6.90514L20.5 8L20.9051 6.90514L22 6.5L20.9051 6.09486L20.5 5Z" fill="#307FE2"/>
</svg>
