<svg width="24" height="24" viewBox="0 0 24 24" fill="none" xmlns="http://www.w3.org/2000/svg">
<g clip-path="url(#clip0_814_281)">
<path d="M20.4 1.59998C20.194 1.60077 19.9917 1.65458 19.8125 1.75623L13.5391 5.10154C14.2727 5.51194 14.8628 6.02516 15.2828 6.61716L20.75 3.94685C20.9958 3.8719 21.2111 3.72001 21.3641 3.51355C21.5171 3.30709 21.5998 3.05696 21.6 2.79998C21.6 2.48172 21.4736 2.17649 21.2485 1.95145C21.0235 1.7264 20.7183 1.59998 20.4 1.59998ZM8.80001 5.59998C7.36644 5.59998 6.06266 5.88037 5.04845 6.38748C4.03424 6.89458 3.20001 7.70488 3.20001 8.79998V10.614L0.4422 12.0844C0.0470002 12.282 -0.113212 12.7626 0.0843877 13.1578C0.224388 13.4378 0.507975 13.6 0.801575 13.6C0.921575 13.6 1.04343 13.5724 1.15783 13.5156L3.20001 12.5187V14.539L1.3297 15.2469C0.9137 15.3965 0.698088 15.8551 0.846888 16.2703C0.964488 16.5967 1.27201 16.8 1.60001 16.8C1.68961 16.8 1.78153 16.7851 1.87033 16.7531L23.0828 9.56404C23.344 9.50071 23.5763 9.35157 23.7426 9.14051C23.9089 8.92945 23.9995 8.66868 24 8.39998C24 8.08172 23.8736 7.77649 23.6485 7.55145C23.4235 7.3264 23.1183 7.19998 22.8 7.19998C22.6214 7.2007 22.4453 7.24127 22.2844 7.31873L14.4 10.3015V8.79998C14.4 7.70488 13.5658 6.89458 12.5516 6.38748C11.5374 5.88037 10.2336 5.59998 8.80001 5.59998ZM8.80001 7.19998C10.0174 7.19998 11.1129 7.4572 11.8359 7.81873C12.559 8.18025 12.8 8.56959 12.8 8.79998C12.8 9.03037 12.559 9.4197 11.8359 9.78122C11.1129 10.1427 10.0174 10.4 8.80001 10.4C7.58262 10.4 6.48712 10.1427 5.76407 9.78122C5.04103 9.4197 4.80001 9.03037 4.80001 8.79998C4.80001 8.56959 5.04103 8.18025 5.76407 7.81873C6.48712 7.4572 7.58262 7.19998 8.80001 7.19998ZM8.80001 8.29998C8.5348 8.29998 8.28044 8.35265 8.09291 8.44642C7.90537 8.54019 7.80001 8.66737 7.80001 8.79998C7.80001 8.93258 7.90537 9.05976 8.09291 9.15353C8.28044 9.2473 8.5348 9.29998 8.80001 9.29998C9.06523 9.29998 9.31958 9.2473 9.50712 9.15353C9.69466 9.05976 9.80001 8.93258 9.80001 8.79998C9.80001 8.66737 9.69466 8.54019 9.50712 8.44642C9.31958 8.35265 9.06523 8.29998 8.80001 8.29998ZM14.4 14.1687L3.51095 17.8812C4.25415 19.1404 6.27921 20 8.80001 20C11.992 20 14.4 18.624 14.4 16.8V14.1687Z" fill="#307FE2"/>
</g>
<defs>
<clipPath id="clip0_814_281">
<rect width="24" height="24" fill="white"/>
</clipPath>
</defs>
</svg>
